<svg width="220" height="40" viewBox="0 0 220 40" fill="none" xmlns="http://www.w3.org/2000/svg">
<path d="M12.4474 10.6562C13.149 9.44293 14.283 9.44293 14.9845 10.6562L26.6408 30.8076C27.3424 32.0209 27.3424 34.0259 26.6408 35.2393L24.4826 39.0898C23.781 40.3031 22.648 40.3031 21.9465 39.0898L10.2892 18.9385C9.58766 17.7252 9.58766 15.7202 10.2892 14.4541L12.4474 10.6562Z" fill="currentColor"/>
<path d="M45.4758 0C46.9329 0 47.4723 1.0025 46.7707 2.21582L34.5744 22.209C33.8189 23.4222 32.0383 24.4246 30.5812 24.4248H26.1017C24.6447 24.4248 24.1044 23.4222 24.8058 22.209L37.0031 2.21582C37.7586 1.00258 39.5392 0.000127689 40.9963 0H45.4758Z" fill="currentColor"/>
<path d="M25.2638 0.0527344C26.7209 0.0529233 28.5015 1.05535 29.257 2.26855L31.5773 6.06641C32.3329 7.27973 31.7393 8.28223 30.3361 8.28223H6.64471C5.18761 8.28223 3.40711 7.2797 2.65154 6.06641L0.330252 2.26855C-0.425245 1.05531 0.168497 0.0528588 1.57146 0.0527344H25.2638Z" fill="currentColor"/>
<path d="M106.538 31.2637H96.6086L99.7385 15.3857C100.332 12.2733 103.084 10.0577 106.322 10.0576H110.748L106.538 31.2637Z" fill="currentColor"/>
<path fill-rule="evenodd" clip-rule="evenodd" d="M139.862 10.1104C144.341 10.1104 146.878 11.429 147.957 13.2754C148.443 14.0666 148.605 14.9636 148.605 15.8604C148.605 17.0208 148.335 18.0759 147.741 19.1309C146.176 21.7685 142.56 23.7207 136.947 23.7207H123.671L122.16 31.2637H112.176L116.386 10.1104H139.862ZM124.535 19.2363V19.2891H134.411C136.246 19.289 137.542 18.7092 138.081 17.7598C138.297 17.3905 138.404 16.9679 138.404 16.4932C138.404 16.124 138.35 15.8077 138.189 15.5439C137.865 14.9637 137.055 14.5938 135.814 14.5938H125.452L124.535 19.2363Z" fill="currentColor"/>
<path fill-rule="evenodd" clip-rule="evenodd" d="M176.855 10.1104C180.902 10.1104 183.384 11.2181 184.518 13.0645C185.003 13.8557 185.166 14.6999 185.166 15.5967C185.166 16.6516 184.896 17.5486 184.41 18.3926C183.115 20.5553 180.039 21.663 175.56 21.9268L177.773 24.9863L182.467 31.2637H171.189L164.874 22.9814H160.395L158.776 31.2637H148.792L153.001 10.1104H176.855ZM161.204 19.0254H171.512C173.131 19.0254 174.264 18.4981 174.804 17.6543C175.02 17.285 175.128 16.9152 175.128 16.4404C175.128 16.0713 175.074 15.8076 174.912 15.5439C174.535 14.911 173.779 14.5938 172.646 14.5938H162.121L161.204 19.0254Z" fill="currentColor"/>
<path d="M219.083 14.6992H199.762L199.007 18.4453H217.896L217.032 22.876H198.144L197.388 26.6221H216.708L215.791 31.2637H186.594L189.725 15.3857C190.318 12.3261 193.071 10.0576 196.309 10.0576H220L219.083 14.6992Z" fill="currentColor"/>
<path d="M72.8088 25.1973L73.4025 26.833L74.59 25.25L74.6437 25.1445L83.8185 12.8008C85.1137 11.1127 87.1101 10.1104 89.2687 10.1104V10.0576H96.9318L80.0402 31.2109H65.6848L57.2121 10.0576H67.4123L72.8088 25.1973Z" fill="currentColor"/>
</svg>
